<svg xmlns="http://www.w3.org/2000/svg" width="149" height="149"><path fill="#7dbd00" d="M78.008 1.417c5.3-2.696 13.024-1.43 17.165 2.815l6.612 6.776c4.14 4.242 12.149 9.21 17.798 11.038l9.021 2.922c5.649 1.827 10.199 8.175 10.111 14.101l-.14 9.47c-.088 5.928 2.04 15.099 4.728 20.38l4.293 8.434c2.688 5.28 1.399 12.988-2.865 17.13l-6.81 6.613c-4.264 4.14-9.264 12.144-11.11 17.782l-2.95 9.008c-1.848 5.64-8.221 10.196-14.164 10.122l-9.49-.114c-5.943-.073-15.141 2.072-20.442 4.767l-8.465 4.305c-5.301 2.696-13.025 1.428-17.165-2.815l-6.612-6.777c-4.14-4.242-12.15-9.21-17.798-11.038l-9.021-2.92c-5.649-1.828-10.2-8.175-10.111-14.104l.14-9.468c.087-5.927-2.04-15.1-4.728-20.38l-4.293-8.433C-.976 65.749.313 58.04 4.577 53.9l6.81-6.613c4.263-4.141 9.263-12.144 11.11-17.782l2.95-9.01c1.847-5.637 8.221-10.194 14.163-10.121l9.49.114c5.943.074 15.142-2.073 20.442-4.767z"/><path fill="#fefefe" d="M79.073 3.834c4.417-2.245 10.854-1.19 14.304 2.345l8.22 8.424c3.45 3.536 10.124 7.676 14.83 9.2l11.215 3.628c4.707 1.525 8.498 6.814 8.425 11.753l-.174 11.77c-.073 4.94 1.7 12.582 3.94 16.984l5.337 10.482c2.24 4.401 1.165 10.826-2.388 14.277l-8.465 8.22c-3.553 3.451-7.719 10.119-9.259 14.82l-3.667 11.195c-1.539 4.699-6.85 8.495-11.802 8.437l-11.797-.146c-4.952-.06-12.617 1.729-17.035 3.975l-10.523 5.35c-4.417 2.246-10.853 1.19-14.303-2.345l-8.22-8.423c-3.45-3.537-10.124-7.677-14.83-9.201l-11.215-3.628c-4.707-1.524-8.499-6.814-8.426-11.753l.174-11.77c.073-4.94-1.7-12.582-3.94-16.982L4.139 69.963c-2.24-4.401-1.165-10.826 2.388-14.277l8.464-8.22c3.553-3.451 7.72-10.12 9.26-14.819l3.667-11.197c1.538-4.698 6.85-8.495 11.802-8.436l11.797.144c4.952.06 12.618-1.728 17.035-3.974z"/><path fill="#8ec500" d="M77.314 9.704a.9.9 0 01.396-1.208l.047-.024c1.445-.733 3.061-1.135 4.714-1.247a.896.896 0 01.956.836.902.902 0 01-.84.957c-1.44.096-2.822.446-4.016 1.054l-.046.024a.9.9 0 01-1.21-.392zm-8.103 4.12a.9.9 0 01.396-1.208l4.052-2.06a.898.898 0 01.815 1.599l-4.052 2.061a.901.901 0 01-1.21-.392zm-8.627 2.825a.898.898 0 01.67-1.08 46.89 46.89 0 004.286-1.232.9.9 0 011.142.557.9.9 0 01-.561 1.142c-1.41.483-2.922.916-4.454 1.279a.898.898 0 01-1.083-.666zm-9.021.95a.906.906 0 01.914-.89l.085.002c1.265.015 2.745-.096 4.31-.313a.896.896 0 011.014.766.9.9 0 01-.77 1.013c-1.635.226-3.195.348-4.581.33h-.085a.896.896 0 01-.887-.909zm-9.085-.112a.903.903 0 01.914-.888l4.542.055a.897.897 0 01.887.91.903.903 0 01-.914.887l-4.542-.056a.895.895 0 01-.887-.908zm-8.17 3.576a.896.896 0 01.127-1.263 14.745 14.745 0 014.176-2.414.9.9 0 011.157.527.9.9 0 01-.531 1.156 12.958 12.958 0 00-3.66 2.118.901.901 0 01-1.268-.124zm-4.182 7.919a.896.896 0 01-.576-1.133l.72-2.198c.25-.762.588-1.497.998-2.196a.904.904 0 011.233-.323c.429.25.572.8.32 1.23a9.402 9.402 0 00-.839 1.843l-.72 2.199a.904.904 0 01-1.136.578zm-2.954 8.577a.896.896 0 01-.49-1.171c.23-.56.431-1.099.598-1.607l.858-2.62a.903.903 0 011.136-.577c.473.153.73.659.576 1.13l-.858 2.62c-.183.56-.4 1.138-.644 1.731a.903.903 0 01-1.176.494zm-4.549 7.85a.896.896 0 01-.235-1.249 49.425 49.425 0 002.347-3.79.903.903 0 011.225-.352.896.896 0 01.348 1.222 51.053 51.053 0 01-2.434 3.93.903.903 0 01-1.25.238zm-4.805 6.747a.898.898 0 11-1.255-1.286l1.687-1.636a24.64 24.64 0 001.445-1.543.902.902 0 011.27-.096c.376.322.418.89.093 1.267-.52.602-1.04 1.16-1.554 1.657l-1.686 1.637zM15.77 83.981a.898.898 0 01-1.143-.558c-.46-1.348-.968-2.583-1.491-3.611l-.225-.44a.9.9 0 01.396-1.21.9.9 0 011.21.392l.224.442c.574 1.126 1.108 2.433 1.591 3.842.16.47-.09.98-.562 1.143zm1.917 8.849a.896.896 0 01-1.014-.766 47.22 47.22 0 00-.822-4.368.9.9 0 01.67-1.082.897.897 0 011.083.665 48.5 48.5 0 01.853 4.537.901.901 0 01-.77 1.014zm.11 9.06a.897.897 0 01-.887-.91l.067-4.532a.904.904 0 01.913-.888.897.897 0 01.888.91l-.067 4.532a.903.903 0 01-.914.887zm.974 8.916a.898.898 0 01-1.157-.527c-.516-1.39-.8-2.851-.778-4.306l.007-.462a.901.901 0 011.8.023l-.006.46c-.018 1.202.218 2.45.667 3.657a.9.9 0 01-.533 1.155zm6.134 6.466a.904.904 0 01-1.232.322c-1.38-.808-2.619-1.893-3.653-3.153a.897.897 0 01.126-1.264.903.903 0 011.268.122c.909 1.11 1.995 2.057 3.172 2.744.429.251.571.8.32 1.229zm8.622 2.849a.902.902 0 01-1.136.576l-4.318-1.396a.898.898 0 01-.576-1.133.904.904 0 011.135-.577l4.319 1.398c.472.152.73.66.576 1.132zm8.309 3.597a.903.903 0 01-1.225.351 37.965 37.965 0 00-3.987-1.93.897.897 0 01-.49-1.17.902.902 0 011.175-.494 39.73 39.73 0 014.178 2.023c.435.24.59.788.349 1.22zm7.374 5.262a.901.901 0 01-1.27.097 40.303 40.303 0 00-3.534-2.676.897.897 0 01-.236-1.248.905.905 0 011.252-.239 41.536 41.536 0 013.694 2.8c.376.324.419.89.094 1.266zm6.348 6.471a.902.902 0 01-1.273-.015l-3.164-3.244a.898.898 0 01.018-1.27.902.902 0 011.274.015l3.165 3.242a.899.899 0 01-.02 1.272zm7.615 4.6a.904.904 0 01-1.103.64c-1.583-.421-3.088-1.1-4.39-2.03a.895.895 0 01-.205-1.252.902.902 0 011.256-.208c1.104.788 2.415 1.384 3.806 1.752.48.127.765.62.636 1.099zm8.797-1.361a.9.9 0 01-.396 1.209l-.023.01c-1.437.731-3.044 1.133-4.687 1.246a.897.897 0 11-.12-1.792c1.432-.097 2.806-.45 3.993-1.052l.022-.013a.9.9 0 011.21.392zm8.103-4.12a.898.898 0 01-.396 1.208l-4.051 2.06a.898.898 0 01-.815-1.6l4.052-2.06a.9.9 0 011.21.393zm8.625-2.83a.9.9 0 01-.67 1.08 46.07 46.07 0 00-4.284 1.234.9.9 0 11-.583-1.7 48.174 48.174 0 014.454-1.28.898.898 0 011.083.665zm9.02-.956a.904.904 0 01-.913.889l-.059-.002c-1.272-.016-2.761.098-4.336.317a.897.897 0 11-.245-1.778c1.645-.23 3.214-.351 4.608-.335h.058a.897.897 0 01.887.909zm9.085.112a.9.9 0 01-.913.887l-4.543-.055a.899.899 0 11.027-1.797l4.542.056a.896.896 0 01.887.91zm8.177-3.56a.898.898 0 01-.129 1.264 14.797 14.797 0 01-4.18 2.406.898.898 0 11-.624-1.683 12.962 12.962 0 003.666-2.112.903.903 0 011.267.125zm4.193-7.91c.474.153.73.66.577 1.132l-.712 2.173a11.303 11.303 0 01-1.014 2.221.902.902 0 01-1.232.32.895.895 0 01-.318-1.229 9.514 9.514 0 00.852-1.866l.712-2.174a.904.904 0 011.135-.577zm2.952-8.579c.46.189.68.714.49 1.172-.226.551-.423 1.08-.587 1.583l-.867 2.644a.9.9 0 01-1.135.577.892.892 0 01-.576-1.13l.866-2.644c.18-.551.393-1.123.634-1.708a.905.905 0 011.175-.494zm4.545-7.852c.41.28.516.838.236 1.248a49.283 49.283 0 00-2.346 3.794.902.902 0 01-1.224.35.895.895 0 01-.35-1.22 50.993 50.993 0 012.432-3.932.903.903 0 011.252-.24zm6.074-6.738a.899.899 0 01-.018 1.272l-1.668 1.62c-.473.46-.965.985-1.461 1.562a.902.902 0 01-1.27.097.897.897 0 01-.094-1.267 25.544 25.544 0 011.57-1.677l1.668-1.621a.904.904 0 011.273.014zm.801-31.83a.899.899 0 011.144.556c.459 1.338.963 2.566 1.483 3.588l.236.464a.9.9 0 11-1.606.816l-.236-.464c-.57-1.12-1.101-2.42-1.581-3.819a.899.899 0 01.56-1.142zm-1.922-8.85a.9.9 0 011.015.764c.196 1.418.477 2.905.824 4.37a.9.9 0 11-1.753.418 48.694 48.694 0 01-.855-4.538.902.902 0 01.77-1.013zm-.113-9.058a.898.898 0 01.887.91l-.066 4.531a.902.902 0 01-.915.887.896.896 0 01-.886-.91l.067-4.531a.901.901 0 01.913-.887zm-.962-8.92a.9.9 0 011.156.53c.51 1.383.789 2.835.768 4.28l-.008.488a.901.901 0 01-1.8-.023l.007-.486c.018-1.195-.215-2.434-.658-3.635a.9.9 0 01.535-1.153zm-6.123-6.477a.903.903 0 011.234-.32c1.378.81 2.614 1.9 3.647 3.16a.897.897 0 01-.13 1.265.9.9 0 01-1.267-.127c-.907-1.11-1.991-2.06-3.167-2.75a.896.896 0 01-.317-1.228zm-8.62-2.852a.902.902 0 011.136-.577l4.318 1.396a.897.897 0 01.576 1.133.902.902 0 01-1.135.577l-4.319-1.397a.896.896 0 01-.575-1.132zm-8.311-3.594a.902.902 0 011.225-.352 38.085 38.085 0 003.988 1.929c.46.188.68.711.492 1.17a.903.903 0 01-1.175.493 39.679 39.679 0 01-4.18-2.02.896.896 0 01-.35-1.22zm-7.377-5.258a.901.901 0 011.27-.097 39.973 39.973 0 003.535 2.674c.41.278.517.838.236 1.249a.905.905 0 01-1.251.239 42.14 42.14 0 01-3.695-2.798.896.896 0 01-.095-1.267zm-6.35-6.47a.904.904 0 011.274.016l3.164 3.245a.902.902 0 01-1.292 1.254l-3.165-3.243a.897.897 0 01.019-1.271zM86.16 8.336a.903.903 0 011.104-.636c1.582.423 3.086 1.104 4.386 2.037a.898.898 0 01.203 1.255.905.905 0 01-1.258.205c-1.1-.792-2.41-1.39-3.801-1.761a.896.896 0 01-.634-1.1z"/><path fill="#7dbd00" d="M114.81 62.251c-.364.652-.582 1.314-.797 1.966-.436 1.322-.847 2.57-2.517 3.764-2.193 1.568-4.332 1.466-5.895 1.392-.256-.011-.494-.024-.714-.026.064-.225.124-.474.188-.744.378-1.574.896-3.73 3.076-5.287 1.658-1.185 3.014-1.11 4.449-1.032.718.04 1.449.08 2.21-.033zM98.895 74.056l4.905-3.506.373.075 1.598.306c1.579.26 4.99.852 6.515 1.117-.666 1.269-2.525 3.858-6.383 3.226zM97.35 75.16l2.182.413c1.763.29 5.609.953 7.242 1.238-.71 1.382-2.776 4.373-7.114 3.662l-7.847-1.356zm-13.353 9.543l6.256-4.47 2.424.449c1.979.324 6.325 1.07 8.078 1.373-.75 1.507-3.044 4.967-7.956 4.163zm7.494-15.58a1127.07 1127.07 0 00-1.381 7.925l-.53 2.188-6.252 4.468 1.516-8.582c.823-4.915 4.958-5.832 6.647-6zM75.696 90.636l6.73-4.81 2.581.472c2.121.349 6.8 1.15 8.628 1.465-.777 1.583-3.216 5.358-8.508 4.493zm6.616-8.15l-.562 2.346 2.523-12.05c-1.34.059-7.684.692-8.815 7.45l-1.834 10.406-11.988 8.569-.076.054s.009-.005.7.976l12.062-8.62 10.607 1.824c7.526 1.232 10.105-5.872 10.13-5.944 5.232-.507 7.104-5.648 7.124-5.708l-.057-.095c4.45-.686 6.063-5.096 6.083-5.149l-.034-.058c4.055-.642 5.528-4.652 5.545-4.7l-.463-.79s-1.96-.344-3.949-.686a8.556 8.556 0 002.888-1.353c1.992-1.424 2.508-2.988 2.962-4.368.42-1.276.783-2.378 2.21-3.397l-.7-.976c-1.414 1.01-2.612.944-3.998.865-1.508-.08-3.215-.176-5.22 1.257a7.974 7.974 0 00-2.08 2.169l.643-3.598-.578-.706c-.052 0-4.565-.06-6.476 3.679l-.545 8.155c.398-2.219.935-5.21 1.029-5.772.644-3.842 3.808-4.65 5.25-4.817-.268 1.493-.863 4.83-1.117 6.358l-.446 1.744-4.898 3.5.096-.538.086-.475-1.155-.388-.094.56-.025.096-.46 1.854-5.53 3.954c.425-2.377 1.23-6.89 1.353-7.626.727-4.34 4.34-5.2 5.903-5.37a972.05 972.05 0 00-1.147 6.532l1.7-7.767c-.925.034-5.009.39-6.868 4-.898.026-5.871.373-7.818 4.899l-2.523 12.05-6.724 4.806 1.621-9.21c.886-5.293 5.367-6.245 7.137-6.415-.317 1.8-1.127 6.4-1.472 8.474zM52.408 67.999l-1.867-.458-.087-.023-.575-.095c-1.88-.313-5.085-.87-6.53-1.123.164 1.557 1.017 5.16 5.367 5.875.737.12 5.257.912 7.64 1.329zM40.542 52.146c-.083 1.431-.16 2.784 1.023 4.436 1.555 2.17 3.716 2.68 5.292 3.056.27.062.518.122.745.184.004-.218.015-.457.028-.713.08-1.557.186-3.693-1.38-5.875-1.193-1.665-2.443-2.071-3.767-2.503-.653-.211-1.317-.427-1.968-.79.11.76.07 1.488.027 2.205zM52.307 65.79l1.24-6.995c.642-3.851-1.948-5.697-3.218-6.358-.27 1.518-.872 4.925-1.135 6.5l-.314 1.596-.075.37zm-1.009.663l-3.497-4.879-1.744-.44a692.35 692.35 0 01-6.373-1.098c.164 1.438.965 4.592 4.815 5.225.574.094 3.65.636 5.882 1.03l.386.067zm6.545 8.108l-.244.384c-.08-.014-8.101-1.423-9.082-1.583-5.888-.968-6.372-6.516-6.409-7.61-3.742-1.895-3.672-6.4-3.67-6.454l.709-.577 3.601.629a7.882 7.882 0 01-2.165-2.067c-1.43-1.996-1.331-3.7-1.244-5.205.08-1.382.149-2.576-.86-3.985l.98-.7c1.02 1.42 2.123 1.78 3.402 2.196 1.38.449 2.948.96 4.37 2.943a8.499 8.499 0 011.351 2.877l.693-3.94.796-.463c.048.016 4.065 1.472 4.697 5.517l.06-.033c.06.023 6.185 2.238 5.102 8.713l-1.63 9.254zm-.481-1.722l1.38-7.83c.722-4.33-2.272-6.384-3.655-7.09-.287 1.631-.963 5.47-1.258 7.23l-.42 2.176z"/><path fill="#7dbd00" d="M60.716 82.31c-2.078-.338-6.689-1.136-8.49-1.446.165 1.764 1.108 6.231 6.411 7.101l9.229 1.594-4.8-6.695zm8.152 6.58l1.647-9.414c.883-5.28-2.896-7.705-4.481-8.475-.32 1.823-1.135 6.494-1.49 8.61l-.48 2.577zM55.283 74.543c-1.936-.317-6.214-1.058-7.94-1.357.164 1.684 1.073 5.805 5.995 6.615l8.6 1.49-4.463-6.223zm16.422 5.127l-1.854 10.59 8.609 12.005c-.988.694-.981.703-.981.703l-.055-.075-8.557-11.939-10.43-1.801c-6.769-1.112-7.39-7.44-7.445-8.777-4.962-2.113-4.892-7.86-4.89-7.925l.707-.58c.063.01 6.235 1.086 8.715 1.494l1.837.438.385-2.037c.416-2.497 1.528-8.812 1.528-8.812l.793-.467c.06.02 5.21 1.874 5.705 7.092.071.025 7.187 2.58 5.933 10.091zm-8.762.952l1.54-8.786c.82-4.902-2.646-7.18-4.154-7.925-.306 1.748-1.067 6.087-1.397 8.061l-.457 2.42z"/><path fill="#7dbd00" d="M125.158 74.84l1.566.025c.217-12.382-4.036-24.475-11.976-34.054a52.157 52.157 0 00-31.735-18.17 52.477 52.477 0 00-35.954 7.07c-10.635 6.533-18.6 16.626-22.424 28.413l1.49.477c3.71-11.432 11.435-21.22 21.753-27.56a50.907 50.907 0 0134.878-6.858 50.6 50.6 0 0130.783 17.625c7.703 9.295 11.829 21.026 11.619 33.033zm-59.374 50.82c26.1 4.278 51.385-11.584 58.817-36.9l-1.504-.436c-7.207 24.557-31.736 39.944-57.055 35.793-25.32-4.153-43.53-26.547-42.356-52.094l-1.565-.067c-1.21 26.336 17.561 49.423 43.663 53.703z"/><path fill="#fefefe" d="M30.033 77.055L6.052 73.123 7.83 62.486l1.63-9.75 23.982 3.932z"/><path fill="#8dd4a7" d="M138.53 93.937l-20.42-3.35 2.966-17.729 20.42 3.35-5.508 8.203zM30.482 58.003l-2.965 17.73-19.68-3.228 5.508-8.205-2.542-9.524z"/><path fill="#7dbd00" d="M95.013 112.643l-4.108-6.165 1.956-1.3a3.813 3.813 0 011.738-.63c.61-.053 1.192.07 1.728.35a3.9 3.9 0 011.399 1.288l.183.277c.38.578.605 1.177.656 1.786a3.07 3.07 0 01-.335 1.718 3.585 3.585 0 01-1.25 1.367zm-2.338-6.351l3.19 4.794.636-.43c.505-.337.77-.78.787-1.34.017-.559-.201-1.195-.666-1.9l-.252-.375c-.49-.73-.976-1.19-1.506-1.391-.511-.199-1.029-.132-1.545.215zm-.857 3.861c.285.697.415 1.346.387 1.97-.028.626-.206 1.178-.533 1.648-.338.478-.8.841-1.386 1.088a3.185 3.185 0 01-1.74.24 2.936 2.936 0 01-1.565-.752c-.457-.409-.843-.958-1.14-1.637l-.142-.347c-.287-.686-.424-1.346-.395-1.98a3.125 3.125 0 01.544-1.657c.346-.467.806-.82 1.383-1.07.586-.245 1.162-.323 1.73-.239a3.076 3.076 0 011.573.763c.465.419.85.968 1.146 1.655zm-1.608.31c-.304-.698-.654-1.176-1.069-1.435-.417-.25-.87-.276-1.354-.069-.484.207-.78.55-.905 1.014-.109.478-.015 1.056.28 1.753l.129.316c.295.688.645 1.164 1.07 1.426.415.258.878.285 1.371.08.483-.207.778-.54.886-1.017.107-.469.013-1.047-.272-1.742zm-4.876 2.418c.146.728.15 1.388.001 1.99a3.056 3.056 0 01-.882 1.506c-.44.404-.98.668-1.615.803a3.357 3.357 0 01-1.79-.084 2.956 2.956 0 01-1.417-1.014c-.387-.485-.649-1.087-.797-1.798l-.082-.366c-.147-.721-.141-1.387.01-2.001a3.285 3.285 0 01.883-1.514c.439-.395.97-.66 1.613-.794a3.367 3.367 0 011.791.085c.56.197 1.028.54 1.413 1.032.384.502.656 1.108.803 1.829zm-1.66-.007c-.159-.768-.43-1.318-.802-1.665-.373-.339-.822-.45-1.355-.346-.535.111-.898.396-1.098.849-.21.46-.235 1.068-.076 1.828l.075.354c.151.75.411 1.307.781 1.664.37.356.828.477 1.373.359.524-.106.887-.388 1.098-.851.2-.454.226-1.069.077-1.836zm-6.186 2.091l-3.107.072.061 3.06-1.619.03-.159-7.957 5.109-.105.024 1.224-3.49.075.05 2.45 3.107-.074zm-9.786 2.744l-1.554-.36.829-3.525-3.025-.705-.828 3.524-1.554-.359 1.802-7.635 1.554.36-.692 2.937 3.025.706.692-2.938 1.554.36zm-8.797-4.686c.108-.25.1-.48-.026-.701-.135-.222-.41-.514-.828-.878-.425-.367-.745-.685-.965-.969-.599-.756-.737-1.475-.42-2.166a1.71 1.71 0 01.739-.823c.336-.182.733-.27 1.198-.252.464.02.942.135 1.431.348.488.225.88.509 1.187.845.305.345.49.72.565 1.131.065.411.017.813-.153 1.204l-1.414-.632c.125-.285.13-.55 0-.8s-.372-.453-.727-.615c-.347-.154-.643-.21-.9-.166-.256.053-.431.185-.525.4-.09.204-.062.427.109.665.161.237.429.519.813.848.702.601 1.154 1.153 1.365 1.663a1.94 1.94 0 01-.04 1.55c-.267.575-.698.922-1.295 1.062-.593.123-1.272.012-2.028-.323-.533-.239-.98-.54-1.326-.922-.347-.38-.558-.777-.638-1.21a2.07 2.07 0 01.166-1.28l1.422.635c-.316.692-.017 1.245.89 1.643.329.149.616.205.862.16a.727.727 0 00.538-.417zm-4.397-3.546l-2.473-1.663-1.116 1.647 2.902 1.953-.738 1.098-4.19-2.81 4.076-6.044 4.183 2.802-.738 1.1-2.894-1.943-.738 1.1 2.473 1.663zm-6.883-4.745l-.923-.875-2.015 2.11-1.163-1.097 5.527-5.804 2.094 1.983c.66.623 1.02 1.263 1.093 1.914.062.657-.163 1.26-.696 1.82-.381.396-.776.646-1.194.748-.419.104-.873.077-1.353-.078l-1.027 3.511-.057.057-1.246-1.176zm.075-1.933l.931.888c.288.277.58.419.874.43.294.01.56-.1.793-.348.233-.247.333-.508.324-.794-.018-.29-.18-.573-.485-.87l-.93-.888zm-2.997-1.681l-1.825-2.452-2.702 1.996-.95-1.289 6.082-4.495 2.998 4.058-.675.498-2.05-2.767-2.027 1.5 1.825 2.453zm55.23-50.592c-.64.515-1.317.737-2.03.66-.712-.08-1.377-.447-1.975-1.097-.663-.719-.954-1.491-.86-2.333.092-.843.551-1.645 1.376-2.406l.328-.308c.52-.486 1.072-.814 1.648-.999a2.791 2.791 0 011.659-.041c.538.154 1.021.462 1.452.916.598.65.905 1.32.92 2.028.016.707-.249 1.379-.814 2.02l-1.06-1.147c.27-.298.395-.592.369-.892-.028-.29-.212-.615-.534-.973-.357-.384-.74-.551-1.145-.521-.417.035-.879.284-1.395.743l-.362.34c-.53.486-.834.931-.903 1.34-.076.398.068.792.44 1.197.325.338.626.54.922.598.298.048.598-.035.903-.26zm-6.837-3.105l-1.27-.97 4.578-5.961 1.27.971zm-2.356-1.899l-1.4-.706-.5-5.811-2.243 4.447-1.4-.708 3.413-6.76 1.401.706.488 5.817 2.254-4.452 1.4.706zm-7.505-5.133l-2.727-.6-.917 1.652-1.65-.357 4.502-7.04 1.437.312 1.139 8.27-1.658-.367zm-2.06-1.682l1.89.407-.331-2.982zm-3.297 1.322c-.29.364-.691.65-1.223.858a5.162 5.162 0 01-1.757.342c-.682.021-1.28-.116-1.806-.393a2.91 2.91 0 01-1.226-1.24c-.29-.543-.44-1.196-.466-1.954l-.017-.526c-.023-.777.1-1.453.339-2.023.257-.568.618-1.014 1.111-1.334.491-.31 1.072-.472 1.745-.495.93-.02 1.66.177 2.201.6.54.431.865 1.056.984 1.887l-1.574.046c-.085-.462-.25-.795-.5-1.007-.252-.212-.598-.308-1.03-.302-.557.024-.967.243-1.247.664-.282.429-.405 1.047-.39 1.87l.012.507c.013.833.187 1.451.518 1.868.322.413.786.614 1.4.601.603-.016 1.03-.165 1.287-.448l-.038-1.425-1.468.035-.034-1.226 3.09-.084zm-10.233-.413l-1.199.317.672 2.55-1.5.403-1.855-7.016 2.709-.717c.858-.223 1.563-.211 2.134.034.57.246.941.708 1.115 1.385.13.479.125.906-.005 1.285-.14.379-.397.717-.772 1.019l2.323 2.44.017.07-1.608.421zm-1.54-.958l1.209-.316c.38-.102.646-.267.807-.488.162-.222.205-.482.13-.78-.083-.3-.24-.507-.478-.62-.248-.12-.56-.132-.96-.025l-1.21.316zM63.5 39.79c.34.647.523 1.268.555 1.873a2.89 2.89 0 01-.392 1.661c-.293.496-.723.893-1.279 1.191-.556.301-1.123.436-1.692.41a2.888 2.888 0 01-1.614-.569c-.496-.348-.911-.837-1.246-1.463l-.175-.325c-.342-.637-.532-1.27-.563-1.885-.031-.613.1-1.164.392-1.66.293-.494.723-.892 1.279-1.191.566-.299 1.133-.433 1.692-.408a3.064 3.064 0 011.611.587c.504.36.927.857 1.27 1.485zm-1.55.47c-.338-.607-.711-1.003-1.139-1.186-.427-.186-.863-.153-1.324.096-.462.249-.732.604-.816 1.049-.074.445.048.97.367 1.575l.153.283c.32.606.693 1 1.119 1.193.426.194.87.161 1.353-.092.461-.249.73-.595.805-1.05.075-.445-.046-.98-.365-1.584z"/></svg>