<svg xmlns="http://www.w3.org/2000/svg" width="29" height="26"><path fill="#333" d="M28.982 6.107l-.59 5.437a1.559 1.559 0 01-1.489 1.398l-17.274.026.654 3.103c.28 2.114 2.073 1.979 2.073 1.979h13.796s-.109 1.936-1.843 1.936H11.452c-2.61 0-2.947-2.209-2.947-2.209L5.562 3.293C5.35 2.064 4.52 2.064 4.52 2.064L.943 2.05 0-.001h4.5c2.157 0 2.608 1.02 3.307 4.338h19.288s.938-.015 1.42.473c.481.481.52.79.467 1.297zm-2.079.696H8.327l.836 3.956H26.48zM21.553 26c-1.213 0-2.196-.996-2.196-2.225 0-1.222.983-2.218 2.196-2.218 1.209 0 2.191.996 2.191 2.218 0 1.23-.982 2.225-2.19 2.225zm-8.774 0c-1.214 0-2.192-.996-2.192-2.225 0-2.928 4.382-2.933 4.382 0 0 1.23-.982 2.225-2.19 2.225z"/></svg>