<svg xmlns="http://www.w3.org/2000/svg" width="80" height="80"><path fill="#7dbd00" d="M41.694 1.14c2.825-1.443 6.941-.765 9.148 1.505l3.524 3.624c2.206 2.269 6.475 4.925 9.485 5.903l4.808 1.563c3.01.977 5.435 4.372 5.389 7.542l-.075 5.064c-.047 3.17 1.087 8.075 2.52 10.9l2.288 4.51c1.432 2.824.745 6.947-1.527 9.162l-3.63 3.537c-2.272 2.214-4.937 6.495-5.92 9.51l-1.573 4.817c-.984 3.016-4.381 5.453-7.548 5.415l-5.058-.062c-3.167-.039-8.07 1.108-10.894 2.55l-4.512 2.302c-2.825 1.442-6.941.764-9.148-1.506l-3.524-3.624c-2.206-2.269-6.474-4.925-9.485-5.904l-4.808-1.561c-3.01-.978-5.435-4.372-5.388-7.543l.074-5.064c.047-3.17-1.087-8.075-2.52-10.9l-2.288-4.51C-.4 35.545.287 31.423 2.56 29.208l3.63-3.536c2.272-2.215 4.937-6.495 5.921-9.51l1.572-4.82c.985-3.014 4.381-5.452 7.548-5.412l5.058.061c3.167.039 8.07-1.11 10.894-2.55z"/><path fill="#fefefe" d="M42.262 2.432c2.354-1.201 5.784-.637 7.623 1.254l4.38 4.505c1.84 1.89 5.396 4.105 7.905 4.92l5.976 1.941c2.509.816 4.53 3.644 4.49 6.286l-.092 6.294c-.039 2.643.906 6.73 2.1 9.084l2.844 5.606c1.194 2.354.62 5.79-1.273 7.636l-4.511 4.396C69.81 56.2 67.59 59.765 66.77 62.28l-1.955 5.987c-.82 2.514-3.65 4.544-6.29 4.513l-6.287-.079c-2.64-.031-6.725.925-9.079 2.126l-5.608 2.862c-2.354 1.201-5.784.637-7.623-1.255l-4.38-4.505c-1.839-1.89-5.396-4.105-7.904-4.92l-5.977-1.94c-2.509-.815-4.53-3.645-4.49-6.286l.092-6.295c.04-2.643-.906-6.729-2.1-9.083L2.326 37.8c-1.193-2.353-.62-5.79 1.273-7.636l4.511-4.396c1.894-1.845 4.114-5.412 4.935-7.925l1.954-5.989c.82-2.512 3.651-4.543 6.29-4.512l6.287.077c2.64.033 6.725-.924 9.079-2.125z"/><path fill="#8ec500" d="M41.324 5.571a.482.482 0 01.212-.646l.024-.012c.77-.393 1.632-.608 2.513-.668a.48.48 0 01.062.958c-.768.053-1.505.24-2.14.565l-.025.013a.48.48 0 01-.646-.21zm-4.318 2.204a.481.481 0 01.21-.646l2.16-1.102a.479.479 0 11.434.855l-2.159 1.103a.48.48 0 01-.645-.21zm-4.598 1.51a.48.48 0 01.357-.577 24.774 24.774 0 002.284-.659.478.478 0 01.61.298.482.482 0 01-.3.61 25.3 25.3 0 01-2.374.685.478.478 0 01-.577-.356zm-4.808.508a.483.483 0 01.487-.476l.046.002a15.76 15.76 0 002.297-.168.477.477 0 01.54.41.482.482 0 01-.41.541c-.872.122-1.703.187-2.442.177h-.045a.478.478 0 01-.473-.486zm-4.841-.06a.481.481 0 01.487-.474l2.42.029a.482.482 0 01-.014.962l-2.42-.031a.477.477 0 01-.473-.486zm-4.354 1.914a.48.48 0 01.067-.676 7.856 7.856 0 012.226-1.292.48.48 0 11.333.9c-.695.26-1.364.65-1.95 1.134a.48.48 0 01-.676-.066zm-2.23 4.234a.48.48 0 01-.306-.605l.384-1.177c.133-.407.313-.8.532-1.173a.48.48 0 11.827.485 5.014 5.014 0 00-.447.985l-.384 1.176a.482.482 0 01-.605.31zm-1.574 4.588a.48.48 0 01-.26-.627c.122-.3.229-.587.318-.86l.457-1.4a.48.48 0 11.912.296l-.457 1.4a12.7 12.7 0 01-.343.927.481.481 0 01-.627.264zm-2.424 4.198a.48.48 0 01-.125-.668c.444-.652.87-1.34 1.25-2.027a.48.48 0 01.653-.189.48.48 0 01.186.654 27.463 27.463 0 01-1.297 2.103.48.48 0 01-.667.127zm-2.56 3.608a.48.48 0 01-.669-.687l.898-.875c.25-.244.508-.52.77-.825a.48.48 0 11.727.626c-.277.322-.555.62-.828.886l-.899.875zM8.524 45.296a.478.478 0 01-.61-.298 15.157 15.157 0 00-.794-1.932L7 42.831a.48.48 0 11.856-.437l.12.236c.305.603.59 1.301.847 2.055a.483.483 0 01-.3.611zm1.021 4.733a.478.478 0 01-.54-.41 25.411 25.411 0 00-.438-2.337.48.48 0 01.934-.222c.192.812.347 1.636.455 2.426a.482.482 0 01-.41.543zm.06 4.845a.48.48 0 01-.474-.487l.036-2.423a.482.482 0 01.487-.475.478.478 0 01.473.487l-.036 2.423a.483.483 0 01-.487.475zm.518 4.77a.478.478 0 01-.616-.284 6.393 6.393 0 01-.415-2.302l.004-.247a.48.48 0 11.96.013l-.004.245c-.01.644.116 1.31.355 1.956a.482.482 0 01-.284.618zm3.27 3.457a.481.481 0 01-.658.172 7.362 7.362 0 01-1.946-1.686.481.481 0 01.742-.611 6.371 6.371 0 001.691 1.468.48.48 0 01.17.657zm4.594 1.523a.48.48 0 01-.605.309l-2.302-.747a.48.48 0 01.299-.914l2.301.747a.48.48 0 01.307.605zm4.428 1.925a.48.48 0 01-.652.187 20.422 20.422 0 00-2.125-1.032.48.48 0 01.365-.89c.714.292 1.47.662 2.226 1.082a.48.48 0 01.186.653zm3.93 2.814a.48.48 0 01-.677.051 21.555 21.555 0 00-1.883-1.431.48.48 0 01.542-.795c.71.484 1.38.991 1.968 1.498a.48.48 0 01.05.677zm3.384 3.46a.48.48 0 01-.679-.008l-1.686-1.734a.482.482 0 01.688-.672l1.687 1.734a.482.482 0 01-.01.68zm4.058 2.461a.482.482 0 01-.588.342 7.221 7.221 0 01-2.34-1.086.48.48 0 01.56-.78c.589.42 1.288.74 2.029.937a.48.48 0 01.34.587zm4.688-.728a.481.481 0 01-.21.646l-.013.006a6.5 6.5 0 01-2.498.666.478.478 0 01-.51-.445.482.482 0 01.446-.513 5.526 5.526 0 002.128-.563l.012-.007a.48.48 0 01.645.21zm4.319-2.203a.481.481 0 01-.211.645l-2.16 1.103a.48.48 0 11-.434-.856l2.16-1.102a.48.48 0 01.645.21zm4.596-1.515a.481.481 0 01-.356.579c-.789.188-1.566.412-2.284.66a.48.48 0 11-.31-.91c.75-.258 1.557-.49 2.373-.685a.48.48 0 01.577.356zm4.808-.51a.483.483 0 01-.487.475l-.031-.001a15.654 15.654 0 00-2.311.17.481.481 0 01-.13-.951 16.735 16.735 0 012.455-.18h.03a.48.48 0 01.474.487zm4.841.06a.481.481 0 01-.487.474l-2.42-.03a.479.479 0 01-.473-.486.483.483 0 01.487-.475l2.42.03c.266.003.478.22.473.486zm4.358-1.905a.482.482 0 01-.068.677 7.872 7.872 0 01-2.229 1.287.48.48 0 01-.332-.9 6.917 6.917 0 001.954-1.13.48.48 0 01.675.066zm2.235-4.23a.48.48 0 01.307.606l-.38 1.162c-.134.413-.317.81-.54 1.187a.48.48 0 11-.826-.486 5.03 5.03 0 00.454-.997l.38-1.163a.481.481 0 01.605-.309zm1.573-4.588a.48.48 0 01.262.627c-.121.294-.226.578-.314.846l-.462 1.415a.48.48 0 11-.912-.296l.462-1.414c.096-.295.21-.6.338-.914a.48.48 0 01.626-.264zm2.422-4.2a.48.48 0 01.126.668c-.444.653-.87 1.342-1.25 2.028a.48.48 0 11-.839-.465c.396-.713.835-1.426 1.296-2.102a.48.48 0 01.667-.128zm3.238-3.603c.184.19.18.495-.01.68l-.89.866c-.251.246-.513.528-.778.836a.48.48 0 11-.727-.626c.28-.327.56-.628.837-.897l.889-.867a.48.48 0 01.679.008zm.426-17.024a.48.48 0 01.61.297c.245.716.513 1.373.79 1.92l.126.248a.482.482 0 01-.21.646.479.479 0 01-.646-.21l-.125-.249a15.96 15.96 0 01-.843-2.042.48.48 0 01.298-.61zm-1.024-4.732a.48.48 0 01.541.408c.104.759.254 1.553.44 2.337a.48.48 0 11-.934.224 26.118 26.118 0 01-.457-2.427.482.482 0 01.41-.542zm-.06-4.845a.479.479 0 01.473.486l-.036 2.424a.479.479 0 11-.96-.012l.036-2.424a.48.48 0 01.487-.474zm-.513-4.771a.48.48 0 01.616.283 6.4 6.4 0 01.41 2.29l-.005.26a.479.479 0 11-.96-.013l.005-.259a5.425 5.425 0 00-.351-1.943.482.482 0 01.285-.618zm-3.263-3.464a.482.482 0 01.658-.171 7.365 7.365 0 011.943 1.69.482.482 0 01-.744.609 6.394 6.394 0 00-1.688-1.47.48.48 0 01-.169-.658zM61.838 15.5a.48.48 0 01.605-.309l2.302.747a.48.48 0 11-.298.915l-2.302-.748a.48.48 0 01-.307-.605zm-4.43-1.923a.48.48 0 01.653-.187c.73.403 1.455.757 2.126 1.03a.48.48 0 11-.364.89 21.303 21.303 0 01-2.228-1.08.48.48 0 01-.186-.653zm-3.93-2.811a.478.478 0 01.676-.052c.556.477 1.2.965 1.884 1.43a.481.481 0 01-.541.796c-.71-.484-1.38-.992-1.97-1.497a.48.48 0 01-.05-.677zm-3.385-3.46a.48.48 0 01.679.008l1.686 1.735a.481.481 0 01-.689.671l-1.686-1.735a.481.481 0 01.01-.68zm-4.054-2.468a.48.48 0 01.588-.34 7.16 7.16 0 012.337 1.09.481.481 0 01-.562.78 6.216 6.216 0 00-2.026-.942.48.48 0 01-.337-.588z"/><path fill="#7dbd00" d="M61.308 33.675c-.194.348-.31.702-.425 1.051-.232.707-.451 1.374-1.342 2.013-1.168.838-2.308.784-3.141.745a9.213 9.213 0 00-.38-.014c.033-.12.065-.254.1-.399.2-.841.477-1.994 1.638-2.828.884-.632 1.607-.593 2.372-.55.382.02.772.042 1.178-.018zm-8.483 6.313l2.615-1.875.198.04.852.164c.841.139 2.66.456 3.472.597-.355.679-1.346 2.063-3.402 1.725zm-.822.59l1.163.22c.94.156 2.989.51 3.86.663-.379.74-1.48 2.339-3.792 1.959l-4.182-.726zm-7.117 5.103l3.334-2.39 1.292.24c1.055.174 3.372.573 4.305.735-.4.805-1.622 2.656-4.24 2.226zm3.994-8.332c-.162.921-.564 3.205-.736 4.24l-.283 1.17-3.33 2.389.807-4.59c.439-2.628 2.642-3.12 3.542-3.209zm-8.418 11.506l3.587-2.571 1.375.251a868.4 868.4 0 014.599.784c-.415.847-1.715 2.865-4.535 2.402zm3.526-4.358l-.3 1.254 1.345-6.444c-.714.031-4.095.37-4.698 3.984l-.977 5.566-6.39 4.583-.04.028s.005-.003.374.523l6.428-4.61 5.653.975c4.01.659 5.385-3.14 5.399-3.18 2.788-.27 3.785-3.02 3.796-3.052l-.03-.05c2.372-.367 3.231-2.726 3.241-2.754l-.018-.032c2.162-.343 2.947-2.488 2.956-2.514l-.247-.423s-1.044-.183-2.104-.366a4.565 4.565 0 001.539-.723c1.06-.762 1.336-1.598 1.578-2.336.224-.683.417-1.272 1.178-1.818l-.373-.522c-.754.541-1.392.505-2.13.464-.805-.044-1.714-.095-2.783.672a4.24 4.24 0 00-1.108 1.16l.342-1.925-.308-.377c-.028 0-2.433-.032-3.451 1.967l-.29 4.361c.212-1.186.498-2.786.548-3.086.343-2.055 2.029-2.487 2.798-2.577-.143.798-.46 2.584-.595 3.4l-.238.934-2.61 1.872.05-.288.046-.255-.615-.206-.05.3-.013.05-.246.992-2.947 2.114c.227-1.271.656-3.685.721-4.078.388-2.322 2.313-2.78 3.146-2.872-.138.775-.442 2.491-.611 3.494l.906-4.155c-.493.018-2.67.21-3.66 2.14-.479.014-3.13.2-4.167 2.62l-1.345 6.444-3.583 2.57.864-4.925c.472-2.831 2.86-3.34 3.804-3.43-.17.961-.601 3.422-.785 4.531zM28.05 36.749l-.994-.245-.047-.012-.306-.052c-1.002-.167-2.71-.465-3.48-.6.087.832.542 2.76 2.86 3.142.393.064 2.802.487 4.072.71zm-6.323-8.478c-.044.765-.086 1.488.545 2.372.829 1.16 1.98 1.433 2.82 1.634.144.033.277.066.397.098a9.54 9.54 0 01.016-.381c.042-.833.099-1.975-.736-3.142-.636-.89-1.302-1.108-2.008-1.338-.348-.114-.701-.23-1.048-.423.059.406.036.796.014 1.18zm6.27 7.296l.66-3.741c.343-2.06-1.037-3.047-1.714-3.4-.144.812-.465 2.634-.605 3.476l-.167.854-.04.198zm-.538.354l-1.864-2.608-.93-.236c-.816-.133-2.598-.446-3.396-.587.088.768.515 2.456 2.567 2.794.306.05 1.945.34 3.134.55l.206.036zm3.488 4.337l-.13.206c-.043-.008-4.317-.762-4.84-.847-3.138-.517-3.396-3.485-3.415-4.07-1.995-1.014-1.958-3.423-1.957-3.452l.378-.309 1.92.337a4.214 4.214 0 01-1.155-1.106c-.762-1.067-.709-1.978-.663-2.783.043-.74.08-1.378-.458-2.132l.523-.374c.543.76 1.131.952 1.813 1.175.736.24 1.57.513 2.328 1.574a4.55 4.55 0 01.72 1.538l.37-2.107.424-.248c.026.009 2.167.788 2.504 2.951l.031-.017c.033.012 3.297 1.196 2.72 4.66l-.87 4.949zm-.256-.92l.736-4.189c.384-2.315-1.211-3.414-1.948-3.791-.154.872-.514 2.925-.671 3.866l-.224 1.164z"/><path fill="#7dbd00" d="M32.478 44.402a586 586 0 01-4.524-.774c.087.945.59 3.334 3.417 3.8l4.918.852-2.559-3.58zm4.345 3.52l.878-5.035c.47-2.824-1.544-4.12-2.389-4.533a919.5 919.5 0 00-.793 4.606l-.256 1.377zm-7.24-7.673c-1.032-.17-3.312-.566-4.232-.726.088.9.572 3.105 3.196 3.538l4.582.797-2.378-3.328zm8.752 2.742l-.988 5.663 4.588 6.422c-.527.37-.523.376-.523.376l-.029-.04-4.56-6.386-5.559-.963c-3.607-.595-3.938-3.979-3.968-4.694-2.644-1.13-2.607-4.204-2.606-4.239l.377-.31c.033.006 3.323.581 4.645.799l.978.234.205-1.089c.222-1.336.815-4.713.815-4.713l.422-.25c.033.01 2.777 1.002 3.041 3.793.038.014 3.83 1.38 3.162 5.397zm-4.67.509l.821-4.698c.437-2.623-1.41-3.841-2.214-4.24-.163.935-.569 3.257-.744 4.313l-.244 1.294z"/><path fill="#7dbd00" d="M66.822 40.408l.835.012a27.863 27.863 0 00-6.383-18.213 27.778 27.778 0 00-16.912-9.717A27.881 27.881 0 0025.2 16.272a28 28 0 00-11.95 15.195l.794.256a27.167 27.167 0 0111.593-14.74 27.055 27.055 0 0118.588-3.669 26.945 26.945 0 0116.405 9.427 27.031 27.031 0 016.192 17.667zM35.18 67.586c13.91 2.29 27.386-6.194 31.347-19.734l-.802-.233c-3.841 13.134-16.913 21.363-30.407 19.143-13.494-2.22-23.2-14.198-22.573-27.86l-.835-.037c-.644 14.085 9.36 26.432 23.27 28.721z"/><path fill="#fefefe" d="M16.126 41.592L3.346 39.49l.948-5.688.869-5.216 12.78 2.104z"/><path fill="#8dd4a7" d="M73.95 50.62l-10.883-1.79 1.58-9.482 10.883 1.79-2.936 4.389zM16.364 31.402l-1.58 9.482L4.297 39.16l2.935-4.389-1.355-5.093z"/><path fill="#7dbd00" d="M50.757 60.625l-2.19-3.297 1.043-.696a2.03 2.03 0 01.927-.336c.325-.028.634.038.92.187.29.155.542.385.746.69l.097.148c.203.307.323.629.35.954.027.326-.03.633-.179.919-.15.292-.369.536-.666.731zm-1.246-3.396l1.7 2.563.339-.23c.27-.18.41-.417.42-.716.009-.299-.108-.64-.355-1.017l-.135-.2c-.26-.39-.52-.636-.802-.743-.273-.107-.549-.07-.824.114zm-.457 2.065c.152.372.221.72.206 1.054a1.65 1.65 0 01-.284.881c-.18.255-.426.45-.738.581-.312.133-.62.174-.928.129a1.56 1.56 0 01-.834-.403 2.506 2.506 0 01-.607-.875l-.076-.186a2.454 2.454 0 01-.21-1.058 1.67 1.67 0 01.29-.886c.184-.25.43-.439.736-.573.313-.131.62-.173.923-.127.307.05.585.182.838.407.248.224.453.518.61.886zm-.857.165c-.162-.373-.348-.629-.57-.767a.753.753 0 00-.721-.037.795.795 0 00-.483.543c-.058.255-.007.565.15.937l.068.169c.158.368.344.622.57.763.222.138.469.152.731.042.258-.11.415-.288.473-.544.057-.25.007-.56-.145-.931zm-2.598 1.293c.077.39.08.743 0 1.066a1.634 1.634 0 01-.47.805 1.799 1.799 0 01-.86.428 1.776 1.776 0 01-.955-.044 1.581 1.581 0 01-.755-.543 2.255 2.255 0 01-.425-.96l-.044-.197a2.431 2.431 0 01.006-1.07c.089-.322.246-.592.47-.81.234-.21.518-.353.86-.424.338-.072.656-.055.955.045.298.105.547.29.753.553.205.267.35.591.427.977zm-.886-.003c-.084-.411-.228-.705-.426-.89-.2-.182-.439-.241-.723-.186-.285.06-.478.213-.585.454-.112.247-.125.571-.04.978l.04.19c.08.4.219.699.416.89.197.19.441.255.732.191a.77.77 0 00.584-.455c.107-.242.121-.571.042-.981zm-3.296 1.118l-1.656.039.033 1.636-.863.016-.085-4.255 2.723-.057.013.655-1.86.04.026 1.31 1.656-.039zm-5.215 1.468l-.828-.193.441-1.885-1.612-.377-.441 1.885-.828-.192.96-4.084.828.193-.368 1.57 1.611.377.37-1.57.827.192zm-4.689-2.506a.399.399 0 00-.014-.375c-.071-.12-.219-.276-.44-.47a3.779 3.779 0 01-.515-.518c-.32-.405-.393-.789-.224-1.158a.921.921 0 01.394-.441 1.21 1.21 0 01.638-.134c.248.01.502.071.763.186.26.12.47.271.632.452.163.184.262.384.302.605.034.219.009.434-.082.643l-.753-.338a.475.475 0 000-.427c-.07-.134-.199-.243-.388-.33-.185-.082-.343-.112-.479-.088a.361.361 0 00-.28.213c-.049.11-.033.23.058.357.086.126.228.277.433.453.374.321.615.616.727.89a1.04 1.04 0 01-.02.828.97.97 0 01-.69.569c-.317.065-.679.006-1.082-.173a2.102 2.102 0 01-.707-.493 1.316 1.316 0 01-.34-.648 1.109 1.109 0 01.089-.684l.758.34c-.169.37-.01.665.475.878.175.08.327.11.459.086a.39.39 0 00.286-.223zm-2.343-1.897l-1.318-.89-.595.881 1.547 1.045-.394.588-2.233-1.504 2.173-3.232 2.229 1.498-.393.589-1.543-1.04-.393.589 1.318.89zm-3.668-2.538l-.492-.467-1.074 1.128-.62-.587 2.945-3.104 1.117 1.061c.351.333.544.675.582 1.023.033.352-.087.674-.37.974-.204.211-.414.345-.637.4a1.3 1.3 0 01-.721-.042l-.547 1.877-.03.031-.665-.629zm.04-1.033l.496.475c.153.147.309.224.465.23a.536.536 0 00.423-.187.573.573 0 00.173-.424c-.01-.155-.096-.307-.258-.466l-.496-.474zm-1.597-.9l-.973-1.311-1.44 1.068-.506-.69 3.24-2.404 1.599 2.17-.36.268-1.092-1.48-1.08.8.972 1.313zm29.434-27.057c-.34.275-.702.394-1.082.352-.38-.042-.734-.238-1.052-.586-.354-.385-.509-.797-.46-1.248.05-.45.295-.88.734-1.286l.175-.166c.278-.26.572-.435.878-.534.302-.097.598-.104.885-.021.286.082.544.247.773.489.319.348.483.706.491 1.085.009.378-.133.737-.434 1.08l-.565-.613c.144-.16.21-.317.197-.477-.015-.155-.113-.329-.285-.52-.19-.205-.394-.295-.61-.28-.222.02-.468.153-.744.398l-.193.182c-.282.26-.444.498-.48.717-.041.212.036.423.234.64.173.18.333.29.491.32.159.025.319-.02.482-.14zm-3.644-1.66l-.677-.52 2.44-3.188.677.52zm-1.255-1.016l-.747-.378-.266-3.108-1.195 2.378-.747-.378 1.82-3.616.746.378.26 3.111 1.201-2.381.747.377zm-4-2.746l-1.454-.32-.488.883-.88-.191 2.4-3.765.766.167.607 4.423-.884-.197zm-1.098-.9l1.008.218-.177-1.595zm-1.757.708a1.509 1.509 0 01-.652.459 2.73 2.73 0 01-.936.182 1.898 1.898 0 01-.963-.21 1.551 1.551 0 01-.653-.663c-.155-.29-.234-.64-.248-1.045l-.01-.28a2.6 2.6 0 01.18-1.083 1.61 1.61 0 01.593-.713c.262-.167.572-.253.93-.265.495-.01.885.094 1.173.32.288.23.461.565.524 1.01l-.838.024c-.046-.247-.133-.425-.267-.538-.134-.113-.319-.165-.548-.162-.298.013-.516.13-.665.355-.15.23-.216.56-.208 1l.006.271c.007.446.1.777.276 1 .172.22.419.328.746.322.322-.01.55-.089.686-.24l-.02-.763-.782.02-.018-.656 1.646-.046zm-5.454-.221l-.639.17.358 1.363-.8.216-.987-3.752 1.443-.384c.458-.12.833-.114 1.137.018.304.131.502.379.595.74.069.257.066.485-.003.689a1.265 1.265 0 01-.412.543l1.239 1.305.009.038-.857.226zm-.82-.513l.644-.169c.202-.054.344-.142.43-.26a.48.48 0 00.07-.417.489.489 0 00-.255-.333c-.133-.063-.3-.07-.512-.013l-.645.17zm-1.39.606c.183.346.28.678.297 1.002.017.33-.053.623-.209.889a1.712 1.712 0 01-.681.637 1.702 1.702 0 01-.902.218 1.538 1.538 0 01-.86-.303 2.2 2.2 0 01-.664-.783l-.094-.173a2.395 2.395 0 01-.3-1.009 1.553 1.553 0 01.21-.888c.155-.264.384-.477.68-.636.302-.16.604-.232.902-.22.303.02.59.123.86.315.268.192.493.459.676.794zm-.825.252c-.18-.325-.379-.536-.607-.635-.228-.099-.46-.081-.706.052-.246.133-.39.323-.434.56-.04.238.025.52.195.843l.082.152c.17.323.369.534.596.638.227.103.464.086.721-.05.246-.133.389-.318.43-.561.04-.238-.025-.524-.195-.847z"/></svg>